<svg width="42" height="42" viewBox="0 0 42 42" fill="none" xmlns="http://www.w3.org/2000/svg">
<foreignObject x="-68.592" y="-68.592" width="178.339" height="178.339"><div xmlns="http://www.w3.org/1999/xhtml" style="backdrop-filter:blur(34.3px);clip-path:url(#bgblur_0_3311_2990_clip_path);height:100%;width:100%"></div></foreignObject><rect data-figma-bg-blur-radius="68.592" width="41.1552" height="41.1552" rx="16.4621" fill="#F8F8F8"/>
<path d="M18.3729 20.0259H15.0658C14.6272 20.0259 14.2066 19.8516 13.8965 19.5415C13.5864 19.2314 13.4122 18.8108 13.4122 18.3723V15.0652C13.4122 14.6266 13.5864 14.206 13.8965 13.8959C14.2066 13.5858 14.6272 13.4116 15.0658 13.4116H18.3729C18.8115 13.4116 19.232 13.5858 19.5421 13.8959C19.8522 14.206 20.0265 14.6266 20.0265 15.0652V18.3723C20.0265 18.8108 19.8522 19.2314 19.5421 19.5415C19.232 19.8516 18.8115 20.0259 18.3729 20.0259ZM15.0658 14.514C14.9196 14.514 14.7794 14.5721 14.676 14.6754C14.5727 14.7788 14.5146 14.919 14.5146 15.0652V18.3723C14.5146 18.5185 14.5727 18.6587 14.676 18.762C14.7794 18.8654 14.9196 18.9235 15.0658 18.9235H18.3729C18.5191 18.9235 18.6593 18.8654 18.7627 18.762C18.866 18.6587 18.9241 18.5185 18.9241 18.3723V15.0652C18.9241 14.919 18.866 14.7788 18.7627 14.6754C18.6593 14.5721 18.5191 14.514 18.3729 14.514H15.0658Z" fill="#0D0D0C"/>
<path d="M26.0895 20.0259H22.7823C22.3438 20.0259 21.9232 19.8516 21.6131 19.5415C21.303 19.2314 21.1288 18.8108 21.1288 18.3723V15.0652C21.1288 14.6266 21.303 14.206 21.6131 13.8959C21.9232 13.5858 22.3438 13.4116 22.7823 13.4116H26.0895C26.528 13.4116 26.9486 13.5858 27.2587 13.8959C27.5688 14.206 27.743 14.6266 27.743 15.0652V18.3723C27.743 18.8108 27.5688 19.2314 27.2587 19.5415C26.9486 19.8516 26.528 20.0259 26.0895 20.0259ZM22.7823 14.514C22.6362 14.514 22.496 14.5721 22.3926 14.6754C22.2892 14.7788 22.2312 14.919 22.2312 15.0652V18.3723C22.2312 18.5185 22.2892 18.6587 22.3926 18.762C22.496 18.8654 22.6362 18.9235 22.7823 18.9235H26.0895C26.2356 18.9235 26.3758 18.8654 26.4792 18.762C26.5826 18.6587 26.6406 18.5185 26.6406 18.3723V15.0652C26.6406 14.919 26.5826 14.7788 26.4792 14.6754C26.3758 14.5721 26.2356 14.514 26.0895 14.514H22.7823Z" fill="#0D0D0C"/>
<path d="M18.3729 27.7426H15.0658C14.6272 27.7426 14.2066 27.5684 13.8965 27.2583C13.5864 26.9482 13.4122 26.5276 13.4122 26.0891V22.782C13.4122 22.3434 13.5864 21.9228 13.8965 21.6127C14.2066 21.3026 14.6272 21.1284 15.0658 21.1284H18.3729C18.8115 21.1284 19.232 21.3026 19.5421 21.6127C19.8522 21.9228 20.0265 22.3434 20.0265 22.782V26.0891C20.0265 26.5276 19.8522 26.9482 19.5421 27.2583C19.232 27.5684 18.8115 27.7426 18.3729 27.7426ZM15.0658 22.2308C14.9196 22.2308 14.7794 22.2889 14.676 22.3922C14.5727 22.4956 14.5146 22.6358 14.5146 22.782V26.0891C14.5146 26.2353 14.5727 26.3755 14.676 26.4788C14.7794 26.5822 14.9196 26.6403 15.0658 26.6403H18.3729C18.5191 26.6403 18.6593 26.5822 18.7627 26.4788C18.866 26.3755 18.9241 26.2353 18.9241 26.0891V22.782C18.9241 22.6358 18.866 22.4956 18.7627 22.3922C18.6593 22.2889 18.5191 22.2308 18.3729 22.2308H15.0658Z" fill="#0D0D0C"/>
<path d="M24.4359 27.7426C23.7818 27.7426 23.1424 27.5487 22.5986 27.1853C22.0547 26.8219 21.6308 26.3054 21.3805 25.7011C21.1302 25.0968 21.0647 24.4319 21.1923 23.7903C21.3199 23.1488 21.6349 22.5596 22.0974 22.0971C22.5599 21.6345 23.1492 21.3196 23.7907 21.192C24.4322 21.0644 25.0972 21.1299 25.7015 21.3802C26.3058 21.6305 26.8223 22.0543 27.1857 22.5982C27.5491 23.1421 27.743 23.7814 27.743 24.4355C27.7421 25.3124 27.3934 26.153 26.7734 26.7731C26.1534 27.3931 25.3127 27.7418 24.4359 27.7426ZM24.4359 22.2308C23.9998 22.2308 23.5736 22.3601 23.211 22.6024C22.8484 22.8446 22.5659 23.189 22.399 23.5918C22.2321 23.9947 22.1885 24.438 22.2735 24.8657C22.3586 25.2933 22.5686 25.6862 22.8769 25.9945C23.1853 26.3029 23.5781 26.5128 24.0058 26.5979C24.4335 26.683 24.8768 26.6393 25.2796 26.4725C25.6825 26.3056 26.0268 26.023 26.2691 25.6604C26.5113 25.2979 26.6406 24.8716 26.6406 24.4355C26.6406 23.8508 26.4084 23.29 25.9949 22.8765C25.5814 22.4631 25.0206 22.2308 24.4359 22.2308Z" fill="#0D0D0C"/>
<defs>
<clipPath id="bgblur_0_3311_2990_clip_path" transform="translate(68.592 68.592)"><rect width="41.1552" height="41.1552" rx="16.4621"/>
</clipPath></defs>
</svg>
