<svg width="14" height="14" viewBox="0 0 14 14" fill="none" xmlns="http://www.w3.org/2000/svg">
<g clip-path="url(#clip0_3311_2901)">
<path d="M6.91775 7.78228C4.92889 7.81817 4.92932 10.7734 6.91775 10.8088C8.90661 10.7729 8.90618 7.81774 6.91775 7.78228ZM6.91775 9.94409C6.06989 9.93977 6.06989 8.65133 6.91775 8.64701C7.76561 8.65133 7.76561 9.93977 6.91775 9.94409ZM11.6737 5.62048C10.5059 5.62091 3.33002 5.62005 2.16178 5.62048C1.44665 5.62048 0.864694 6.20244 0.864694 6.91756V7.76499V10.8261C0.798975 11.8417 0.899715 12.9006 2.16178 12.9706H3.00921C3.42081 12.9745 11.5436 12.968 11.6737 12.9706C12.3888 12.9706 12.9708 12.3887 12.9708 11.6735V10.8261V7.76499C13.0365 6.74937 12.9358 5.69052 11.6737 5.62048ZM10.3987 12.1059H3.43681C3.33607 11.2074 2.62786 10.4992 1.72942 10.3985V8.19303C2.62786 8.09186 3.33607 7.38365 3.43681 6.4852H10.3983C10.4994 7.38365 11.2076 8.09185 12.1057 8.19259V10.3981C11.2076 10.4992 10.4994 11.2074 10.3987 12.1059ZM11.6737 6.4852C12.1376 6.48607 12.1242 6.99279 12.1061 7.32831C11.6828 7.24227 11.3495 6.90805 11.263 6.4852H11.6737ZM1.72942 6.91756C1.73028 6.45364 2.23701 6.46704 2.57252 6.4852C2.48605 6.90805 2.15227 7.24183 1.72942 7.32831V6.91756ZM2.16178 12.1059C1.69785 12.105 1.71126 11.5983 1.72942 11.2628C2.1527 11.3493 2.48605 11.683 2.57252 12.1059H2.16178ZM12.1061 11.6735C12.1052 12.1375 11.5985 12.1241 11.263 12.1059C11.3495 11.683 11.6832 11.3493 12.1061 11.2628V11.6735ZM4.88263 3.33199C4.71357 3.16294 4.71357 2.88969 4.88263 2.72063C4.9397 2.68475 6.72189 0.826891 6.75259 0.897798C6.9104 0.830782 7.1041 0.869695 7.22386 0.99162L8.95287 2.72063C9.35454 3.11105 8.7328 3.73495 8.34152 3.33199L7.35011 2.34059V4.75576C7.35011 4.99442 7.15685 5.18812 6.91775 5.18812C6.67865 5.18812 6.48539 4.99442 6.48539 4.75576V2.34059L5.49398 3.33199C5.32493 3.50104 5.05168 3.50104 4.88263 3.33199Z" fill="#0D0D0C"/>
</g>
<defs>
<clipPath id="clip0_3311_2901">
<rect width="13.8356" height="13.8356" fill="white"/>
</clipPath>
</defs>
</svg>
